<svg width="40" height="41" viewBox="0 0 40 41" fill="none" xmlns="http://www.w3.org/2000/svg">
<rect x="0.00976562" y="0.984589" width="40" height="40" rx="4" fill="#0B0E1E"/>
<path d="M30.9514 16.6116H29.4897L29.025 18.7981H33.1572C34.0843 18.7981 34.7758 19.6521 34.583 20.5588L32.879 28.576C32.7359 29.2492 32.1414 29.7306 31.4531 29.7306H22.2305L23.16 25.3576H26.0753L26.5401 23.1711H23.6248L25.9486 12.2386H34.5516C35.4786 12.2386 36.1701 13.0926 35.9774 13.9993L35.1123 18.0693H30.6416L30.9514 16.6116Z" fill="#EDB500"/>
<path d="M21.8846 25.3576H20.0625L19.133 29.7306H20.9551L21.8846 25.3576Z" fill="#F1C433"/>
<path d="M18.787 25.3576H16.965L16.0355 29.7306H17.8575L18.787 25.3576Z" fill="#F4D366"/>
<path d="M8.90818 12.2386C8.21993 12.2386 7.62547 12.72 7.48237 13.3932L4.00977 29.7306H8.48044L12.1985 12.2386H8.90818Z" fill="white"/>
<path d="M15.1032 12.2386C14.415 12.2386 13.8205 12.72 13.6774 13.3932L10.2048 29.7306H14.6755L16.0698 23.1711H19.2588L20.1883 18.7981H16.9993L17.464 16.6116H23.3791L24.3087 12.2386H15.1032Z" fill="white"/>
</svg>
